<?xml version="1.0" encoding="utf-8"?>
<!-- Generator: Adobe Illustrator 16.0.0, SVG Export Plug-In . SVG Version: 6.00 Build 0)  -->
<!DOCTYPE svg PUBLIC "-//W3C//DTD SVG 1.1//EN" "http://www.w3.org/Graphics/SVG/1.1/DTD/svg11.dtd">
<svg version="1.1" id="Layer_1" xmlns="http://www.w3.org/2000/svg" xmlns:xlink="http://www.w3.org/1999/xlink" x="0px" y="0px"
	 width="595.28px" height="841.89px" viewBox="0 0 595.28 841.89" enable-background="new 0 0 595.28 841.89" xml:space="preserve">
<g>
	<g>
		<g>
			<path fill="#C4C1B5" d="M339.979,416.438c11.532,0,20.877-6.589,20.877-14.719c0-8.125-9.345-14.713-20.877-14.713
				c-11.526,0-20.872,6.588-20.872,14.713C319.107,409.848,328.453,416.438,339.979,416.438z"/>
			<path fill="#C4C1B5" d="M388.746,439.243c-0.084-10.93-12.68-19.773-28.208-19.773h-27.89h-1.912h-11.315
				c-15.523,0-28.119,8.844-28.203,19.773c0,0.019-0.004,0.039-0.004,0.058v38.932c0,3.503,4.032,6.347,9,6.347
				c4.978,0,9.01-2.844,9.01-6.347v-23.088v-12.98h4.302v13.89v24.873v3.596v60.395c0,4.707,5.414,8.521,12.084,8.521
				c6.677,0,12.087-3.813,12.087-8.521v-60.395h4.571v60.395c0,4.707,5.41,8.521,12.083,8.521c6.678,0,12.088-3.813,12.088-8.521
				v-60.395v-3.596v-24.873v-13.89h4.302v12.98v23.088c0,3.503,4.028,6.347,9.005,6.347c4.974,0,9.006-2.844,9.006-6.347v-38.932
				C388.751,439.282,388.746,439.262,388.746,439.243z"/>
		</g>
	</g>
	<g>
		<linearGradient id="SVGID_1_" gradientUnits="userSpaceOnUse" x1="354.3535" y1="478.5254" x2="354.3535" y2="587.0919">
			<stop  offset="0" style="stop-color:#C4C1B5"/>
			<stop  offset="0.0911" style="stop-color:#A7A49B"/>
			<stop  offset="0.3079" style="stop-color:#76726D"/>
			<stop  offset="0.514" style="stop-color:#54524F"/>
			<stop  offset="0.7039" style="stop-color:#403E3D"/>
			<stop  offset="0.8717" style="stop-color:#343333"/>
			<stop  offset="1" style="stop-color:#302F2F"/>
		</linearGradient>
		<path fill="url(#SVGID_1_)" d="M366.438,605.883v-43.927c0-4.704-5.41-8.519-12.088-8.519c-6.673,0-12.083,3.814-12.083,8.519
			v43.927H366.438z"/>
		<linearGradient id="SVGID_2_" gradientUnits="userSpaceOnUse" x1="325.6113" y1="478.5254" x2="325.6113" y2="587.0919">
			<stop  offset="0" style="stop-color:#C4C1B5"/>
			<stop  offset="0.0911" style="stop-color:#A7A49B"/>
			<stop  offset="0.3079" style="stop-color:#76726D"/>
			<stop  offset="0.514" style="stop-color:#54524F"/>
			<stop  offset="0.7039" style="stop-color:#403E3D"/>
			<stop  offset="0.8717" style="stop-color:#343333"/>
			<stop  offset="1" style="stop-color:#302F2F"/>
		</linearGradient>
		<path fill="url(#SVGID_2_)" d="M337.696,605.883v-43.927c0-4.704-5.41-8.519-12.087-8.519c-6.67,0-12.084,3.814-12.084,8.519
			v43.927H337.696z"/>
	</g>
</g>
</svg>
